<svg width="541" height="841" viewBox="0 0 541 841" fill="none" xmlns="http://www.w3.org/2000/svg">
<path d="M0 116.709C0 94.6173 17.9086 76.7087 40 76.7087H500.759C522.85 76.7087 540.759 94.6174 540.759 116.709V810.759C540.759 827.327 527.328 840.759 510.759 840.759H30C13.4314 840.759 0 827.327 0 810.759V116.709Z" fill="#352004"/>
<rect x="4.55688" y="76.7087" width="531.645" height="759.493" rx="30" fill="#5E3B09"/>
<rect x="43.291" y="116.202" width="456.455" height="658.48" fill="#D9D9D9"/>
<path d="M150.38 83.291C150.38 61.1996 168.288 43.291 190.38 43.291H349.62C371.711 43.291 389.62 61.1996 389.62 83.291V112.405H150.38V83.291Z" fill="#ACACAC"/>
<path d="M150.38 112.405H389.62V120.759H150.38V112.405Z" fill="#727272"/>
<path d="M150.38 94.9365H389.62V112.405H150.38V94.9365Z" fill="#9A9A9A"/>
<circle cx="265.443" cy="32.2785" r="32.2785" fill="#ACACAC"/>
<circle cx="265.822" cy="28.8608" r="14.4304" fill="black"/>
<path d="M427.455 698.734V775.442L501.126 698.734H427.455Z" fill="#AAAAAA"/>
<path d="M500.671 775.709V699L427 775.709H500.671Z" fill="#5E3B09"/>
</svg>
