<svg width="548" height="619" viewBox="0 0 548 619" fill="none" xmlns="http://www.w3.org/2000/svg">
<path d="M0 16C0 7.16345 7.16344 0 16 0H532C540.837 0 548 7.16344 548 16V603C548 611.837 540.837 619 532 619H16C7.16345 619 0 611.837 0 603V16Z" fill="#666880"/>
<path d="M0 14C0 6.26803 6.26801 0 14 0H534C541.732 0 548 6.26801 548 14V597C548 604.732 541.732 611 534 611H14C6.26801 611 0 604.732 0 597V14Z" fill="#989AAF"/>
<path d="M6 16C6 10.4771 10.4772 6 16 6H532C537.523 6 542 10.4772 542 16V595C542 600.523 537.523 605 532 605H16C10.4772 605 6 600.523 6 595V16Z" fill="#DADCE7"/>
</svg>
