<svg width="38" height="42" viewBox="0 0 38 42" fill="none" xmlns="http://www.w3.org/2000/svg">
<path d="M10.6667 25.1666C10.0764 25.1666 9.58194 24.9666 9.18333 24.5666C8.78472 24.1666 8.58472 23.6722 8.58333 23.0833C8.58194 22.4944 8.78194 22 9.18333 21.6C9.58472 21.2 10.0792 21 10.6667 21C11.2542 21 11.7493 21.2 12.1521 21.6C12.5549 22 12.7542 22.4944 12.75 23.0833C12.7458 23.6722 12.5458 24.1673 12.15 24.5687C11.7542 24.9701 11.2597 25.1694 10.6667 25.1666ZM19 25.1666C18.4097 25.1666 17.9153 24.9666 17.5167 24.5666C17.1181 24.1666 16.9181 23.6722 16.9167 23.0833C16.9153 22.4944 17.1153 22 17.5167 21.6C17.9181 21.2 18.4125 21 19 21C19.5875 21 20.0826 21.2 20.4854 21.6C20.8882 22 21.0875 22.4944 21.0833 23.0833C21.0792 23.6722 20.8792 24.1673 20.4833 24.5687C20.0875 24.9701 19.5931 25.1694 19 25.1666ZM27.3333 25.1666C26.7431 25.1666 26.2486 24.9666 25.85 24.5666C25.4514 24.1666 25.2514 23.6722 25.25 23.0833C25.2486 22.4944 25.4486 22 25.85 21.6C26.2514 21.2 26.7458 21 27.3333 21C27.9208 21 28.416 21.2 28.8187 21.6C29.2215 22 29.4208 22.4944 29.4167 23.0833C29.4125 23.6722 29.2125 24.1673 28.8167 24.5687C28.4208 24.9701 27.9264 25.1694 27.3333 25.1666ZM4.41667 41.8333C3.27083 41.8333 2.29028 41.4257 1.475 40.6104C0.659722 39.7951 0.251389 38.8139 0.25 37.6666V8.49996C0.25 7.35413 0.658333 6.37357 1.475 5.55829C2.29167 4.74301 3.27222 4.33468 4.41667 4.33329H6.5V0.166626H10.6667V4.33329H27.3333V0.166626H31.5V4.33329H33.5833C34.7292 4.33329 35.7104 4.74163 36.5271 5.55829C37.3438 6.37496 37.7514 7.35552 37.75 8.49996V37.6666C37.75 38.8125 37.3424 39.7937 36.5271 40.6104C35.7118 41.427 34.7306 41.8347 33.5833 41.8333H4.41667ZM4.41667 37.6666H33.5833V16.8333H4.41667V37.6666Z" fill="black"/>
</svg>
