<svg width="42" height="56" viewBox="0 0 42 56" fill="none" xmlns="http://www.w3.org/2000/svg">
<path d="M37.3333 11.6667V16.3334H4.66667V11.6667H7.05367C7.61133 5.51838 12.5207 0.609044 18.6667 0.0537109V9.33338H23.3333V0.0537109C29.4793 0.611378 34.3887 5.52071 34.9463 11.6667H37.3333ZM30.3333 37.3334H11.6667C5.23367 37.3334 0 42.567 0 49V56H42V49C42 42.567 36.7663 37.3334 30.3333 37.3334ZM7.00467 21.3407C7.18667 28.903 13.3933 35 21 35C28.6067 35 34.8133 28.903 34.9953 21.3407L35 21H7L7.00467 21.3407Z" fill="#0E5817"/>
</svg>
