<svg width="240" height="80" viewBox="0 0 240 80" fill="none" xmlns="http://www.w3.org/2000/svg">
<path d="M7.5 5C6.125 5 5.33333 5.54167 5.125 6.625L5.0625 6.875L5 7.5V30L5.0625 30.6875V31V31.5V31.8125L5 32.5V67.5C5 69.1667 5.83333 70 7.5 70H232.5C234.167 70 235 69.1667 235 67.5V32.5V31.8125L234.937 31.5V31L235 30.6875V30V7.5L234.937 6.625L235 6.6875C234.708 5.5625 233.875 5 232.5 5H7.5ZM237.437 31.5L237.5 32.5V67.5C237.5 70.8333 235.833 72.5 232.5 72.5H7.5C4.16667 72.5 2.5 70.8333 2.5 67.5V32.5L2.5625 31.5V31L2.5 30V7.5L2.625 6.3125C2.95833 3.77083 4.58333 2.5 7.5 2.5H232.5C235.417 2.5 237.062 3.77083 237.437 6.3125L237.5 7.5V30L237.437 31V31.5Z" fill="white"/>
<path d="M7.5 5H232.5C233.875 5 234.708 5.5625 235 6.6875L234.938 6.625L235 7.5V30V30.6875L234.938 31V31.5L235 31.8125V32.5V67.5C235 69.1667 234.167 70 232.5 70H7.5C5.83333 70 5 69.1667 5 67.5V32.5L5.0625 31.8125V31.5V31V30.6875L5 30V7.5L5.0625 6.875L5.125 6.625C5.33333 5.54167 6.125 5 7.5 5ZM105.875 7.5H102.25H7.5V30V30.1875L7.5625 30.6875V31V31.5V31.8125V32.25L7.5 32.5V67.5H102.25H109.438H232.5V32.5V32.1875L232.438 31.5V31L232.5 30.375V30V7.5H105.875ZM229.938 31.3125L230 32.375V32.5V65H10V32.625L10.0625 31.8125V31.5V31V30.6875V30.625L10 30V10H230V30V30.125C229.917 30.5 229.896 30.8542 229.938 31.1875V31.3125Z" fill="#DADCE7"/>
<path d="M237.438 31.5V31L237.5 30V7.5L237.438 6.3125C237.062 3.77083 235.417 2.5 232.5 2.5H7.5C4.58333 2.5 2.95833 3.77083 2.625 6.3125L2.5 7.5V30L2.5625 31V31.5L2.5 32.5V67.5C2.5 70.8333 4.16667 72.5 7.5 72.5H232.5C235.833 72.5 237.5 70.8333 237.5 67.5V32.5L237.438 31.5ZM0 30.9375V7.5C0 2.5 2.5 0 7.5 0H232.5C237.5 0 240 2.5 240 7.5V30.9375L239.938 31.25L240 31.75V67.8125C239.875 72.6042 237.375 75 232.5 75H7.5C2.625 75 0.125 72.6042 0 67.8125V31.75L0.0625 31.25L0 30.9375Z" fill="#9696A3"/>
<path d="M105.875 7.5H232.5V30V30.375L232.438 31V31.5L232.5 32.1875V32.5V67.5H109.438H102.25H7.5V32.5L7.5625 32.25V31.8125V31.5V31V30.6875L7.5 30.1875V30V7.5H102.25H105.875ZM229.938 31.3125V31.1875C229.896 30.8542 229.917 30.5 230 30.125V30V10H10V30L10.0625 30.625V30.6875V31V31.5V31.8125L10 32.625V65H230V32.5V32.375L229.938 31.3125Z" fill="#FF627B"/>
<path d="M240 30.9375V31.75L239.938 31.25L240 30.9375ZM0 31.75V30.9375L0.0625 31.25L0 31.75Z" fill="#FF0000"/>
<path d="M240 67.8125V72.5C240 77.5 237.5 80 232.5 80H7.5C2.5 80 0 77.5 0 72.5V67.8125C0.125 72.6042 2.625 75 7.5 75H232.5C237.375 75 239.875 72.6042 240 67.8125Z" fill="#747487"/>
</svg>
