<svg width="240" height="81" viewBox="0 0 240 81" fill="none" xmlns="http://www.w3.org/2000/svg">
<path d="M7.5 5.0625C6.125 5.0625 5.33333 5.61094 5.125 6.70781L5.0625 6.96094L5 7.59375V30.375L5.0625 31.0711V31.3875V31.8938V32.2102L5 32.9062V68.3438C5 70.0312 5.83333 70.875 7.5 70.875H232.5C234.167 70.875 235 70.0312 235 68.3438V32.9062V32.2102L234.938 31.8938V31.3875L235 31.0711V30.375V7.59375L234.938 6.70781L235 6.77109C234.708 5.63203 233.875 5.0625 232.5 5.0625H7.5ZM237.438 31.8938L237.5 32.9062V68.3438C237.5 71.7188 235.833 73.4062 232.5 73.4062H7.5C4.16667 73.4062 2.5 71.7188 2.5 68.3438V32.9062L2.5625 31.8938V31.3875L2.5 30.375V7.59375L2.625 6.39141C2.95833 3.81797 4.58333 2.53125 7.5 2.53125H232.5C235.417 2.53125 237.063 3.81797 237.438 6.39141L237.5 7.59375V30.375L237.438 31.3875V31.8938Z" fill="white"/>
<path d="M7.5 5.0625H232.5C233.875 5.0625 234.708 5.63203 235 6.77109L234.937 6.70781L235 7.59375V30.375V31.0711L234.937 31.3875V31.8938L235 32.2102V32.9062V68.3438C235 70.0312 234.167 70.875 232.5 70.875H7.5C5.83333 70.875 5 70.0312 5 68.3438V32.9062L5.0625 32.2102V31.8938V31.3875V31.0711L5 30.375V7.59375L5.0625 6.96094L5.125 6.70781C5.33333 5.61094 6.125 5.0625 7.5 5.0625ZM105.875 7.59375H102.25H7.5V30.375V30.5648L7.5625 31.0711V31.3875V31.8938V32.2102V32.6531L7.5 32.9062V68.3438H102.25H109.437H232.5V32.9062V32.5898L232.437 31.8938V31.3875L232.5 30.7547V30.375V7.59375H105.875ZM229.937 31.7039L230 32.7797V32.9062V65.8125H10V33.0328L10.0625 32.2102V31.8938V31.3875V31.0711V31.0078L10 30.375V10.125H230V30.375V30.5016C229.917 30.8813 229.896 31.2398 229.937 31.5773V31.7039Z" fill="#DADCE7"/>
<path d="M237.438 31.8938V31.3875L237.5 30.375V7.59375L237.438 6.39141C237.062 3.81797 235.417 2.53125 232.5 2.53125H7.5C4.58333 2.53125 2.95833 3.81797 2.625 6.39141L2.5 7.59375V30.375L2.5625 31.3875V31.8938L2.5 32.9062V68.3438C2.5 71.7188 4.16667 73.4062 7.5 73.4062H232.5C235.833 73.4062 237.5 71.7188 237.5 68.3438V32.9062L237.438 31.8938ZM0 31.3242V7.59375C0 2.53125 2.5 0 7.5 0H232.5C237.5 0 240 2.53125 240 7.59375V31.3242L239.938 31.6406L240 32.1469V68.6602C239.875 73.5117 237.375 75.9375 232.5 75.9375H7.5C2.625 75.9375 0.125 73.5117 0 68.6602V32.1469L0.0625 31.6406L0 31.3242Z" fill="#9696A3"/>
<path d="M105.875 7.59375H232.5V30.375V30.7547L232.438 31.3875V31.8938L232.5 32.5898V32.9062V68.3438H109.438H102.25H7.5V32.9062L7.5625 32.6531V32.2102V31.8938V31.3875V31.0711L7.5 30.5648V30.375V7.59375H102.25H105.875ZM229.938 31.7039V31.5773C229.896 31.2398 229.917 30.8813 230 30.5016V30.375V10.125H10V30.375L10.0625 31.0078V31.0711V31.3875V31.8938V32.2102L10 33.0328V65.8125H230V32.9062V32.7797L229.938 31.7039Z" fill="#2FD792"/>
<path d="M240 31.3242V32.1469L239.938 31.6406L240 31.3242ZM0 32.1469V31.3242L0.0625 31.6406L0 32.1469Z" fill="#FF0000"/>
<path d="M240 68.6602V73.4062C240 78.4688 237.5 81 232.5 81H7.5C2.5 81 0 78.4688 0 73.4062V68.6602C0.125 73.5117 2.625 75.9375 7.5 75.9375H232.5C237.375 75.9375 239.875 73.5117 240 68.6602Z" fill="#747487"/>
</svg>
