<svg width="33" height="33" viewBox="0 0 33 33" fill="none" xmlns="http://www.w3.org/2000/svg">
<g clip-path="url(#clip0_89_92)">
<path d="M6.26494 6.29063C3.91025 8.6625 2.55244 11.4641 2.1915 14.6953V14.7211L2.08838 15.9586V16.0102L2.11416 16.3969V16.4484C2.32041 19.6969 3.69541 22.5156 6.23916 24.9047C9.0751 27.5516 12.4954 28.875 16.5001 28.875C20.4876 28.875 23.8993 27.5516 26.7353 24.9047C29.2962 22.5156 30.6884 19.6969 30.9118 16.4484V16.3969L30.9376 16.2937C30.8345 16.0875 30.8345 15.8812 30.9376 15.675L30.8603 14.6953C30.4821 11.4641 29.0899 8.67109 26.6837 6.31641C23.8478 3.48047 20.4532 2.0625 16.5001 2.0625C12.5126 2.0625 9.10088 3.47187 6.26494 6.29063H6.29072L6.26494 6.31641V6.29063ZM1.05713 16.0102V15.9586L1.16025 14.5664C1.53838 11.1117 2.99072 8.1125 5.51728 5.56875L5.54307 5.54297C8.58525 2.53516 12.2376 1.03125 16.5001 1.03125C20.7454 1.03125 24.3806 2.54375 27.4056 5.56875C29.9837 8.1125 31.4704 11.1117 31.8657 14.5664L31.9688 15.9586V16.0102L31.9431 16.5C31.7024 20.0234 30.1985 23.0742 27.4313 25.6523C24.4063 28.4883 20.7626 29.9062 16.5001 29.9062C12.2204 29.9062 8.55947 28.4883 5.51728 25.6523C2.78447 23.0742 1.30635 20.0234 1.08291 16.5L1.05713 16.0102Z" fill="white"/>
<path d="M6.26494 6.29063C9.10088 3.47187 12.5126 2.0625 16.5001 2.0625C20.4532 2.0625 23.8478 3.48047 26.6837 6.31641C29.0899 8.67109 30.4821 11.4641 30.8603 14.6953L30.9376 15.675C30.8345 15.8812 30.8345 16.0875 30.9376 16.2937L30.9118 16.3969V16.4484C30.6884 19.6969 29.2962 22.5156 26.7353 24.9047C23.8993 27.5516 20.4876 28.875 16.5001 28.875C12.4954 28.875 9.0751 27.5516 6.23916 24.9047C3.69541 22.5156 2.32041 19.6969 2.11416 16.4484V16.3969L2.08838 16.0102V15.9586L2.1915 14.7211V14.6953C2.55244 11.4641 3.91025 8.6625 6.26494 6.29063V6.31641L6.29072 6.29063H6.26494Z" fill="#DADCE7"/>
<path d="M1.05713 16.0102L1.08291 16.5C1.30635 20.0234 2.78447 23.0742 5.51728 25.6523C8.55947 28.4883 12.2204 29.9062 16.5001 29.9062C20.7626 29.9062 24.4063 28.4883 27.4313 25.6523C30.1985 23.0742 31.7024 20.0234 31.9431 16.5L31.9688 16.0102V15.9586L31.8657 14.5664C31.4704 11.1117 29.9837 8.1125 27.4056 5.56875C24.3806 2.54375 20.7454 1.03125 16.5001 1.03125C12.2376 1.03125 8.58525 2.53516 5.54307 5.54297L5.51728 5.56875C2.99072 8.1125 1.53838 11.1117 1.16025 14.5664L1.05713 15.9586V16.0102ZM0.0258789 15.9844L0.129004 14.4633C0.541504 10.768 2.09697 7.55391 4.79541 4.82109C8.04385 1.60703 11.9454 0 16.5001 0C21.0376 0 24.9134 1.60703 28.1274 4.82109C30.8774 7.55391 32.4673 10.768 32.897 14.4633L33.0001 15.9844V16.268L32.9743 16.5C32.7337 20.3156 31.1181 23.6156 28.1274 26.4C24.9134 29.425 21.0376 30.9375 16.5001 30.9375C11.9454 30.9375 8.04385 29.425 4.79541 26.4C1.85635 23.6156 0.275098 20.3156 0.0516602 16.5L0.0258789 15.9844Z" fill="#989AAF"/>
<path d="M0.0257812 15.9844L0.0515625 16.5C0.275 20.3156 1.85625 23.6156 4.79531 26.4C8.04375 29.425 11.9453 30.9375 16.5 30.9375C21.0375 30.9375 24.9133 29.425 28.1273 26.4C31.118 23.6156 32.7336 20.3156 32.9742 16.5L33 16.268V16.5C33 21.0547 31.3758 24.9391 28.1273 28.1531C24.9133 31.3844 21.0375 33 16.5 33C11.9453 33 8.04375 31.3844 4.79531 28.1531C1.59844 24.9391 0 21.0547 0 16.5L0.0257812 15.9844Z" fill="#666880"/>
</g>
<defs>
<clipPath id="clip0_89_92">
<rect width="33" height="33" fill="white"/>
</clipPath>
</defs>
</svg>
