<svg width="69" height="69" viewBox="0 0 69 69" fill="none" xmlns="http://www.w3.org/2000/svg">
<g clip-path="url(#clip0_126_18)">
<path d="M9.11944 11.9664L5.06896 50.5041C4.52889 55.6424 6.82804 58.4817 11.9664 59.0217L50.5041 63.0722C55.6425 63.6123 58.4817 61.3131 59.0218 56.1747L63.0722 17.637C63.6123 12.4987 61.3132 9.65945 56.1748 9.11938L17.6371 5.06891C12.4987 4.52884 9.6595 6.82799 9.11944 11.9664ZM50.0991 66.926L11.5614 62.8755C3.85381 62.0654 0.405089 57.8066 1.21519 50.099L5.26566 11.5613C6.07576 3.85376 10.3346 0.405038 18.0421 1.21513L56.5798 5.26561C64.2874 6.07571 67.7361 10.3345 66.926 18.0421L62.8755 56.5798C62.0654 64.2873 57.8066 67.7361 50.0991 66.926Z" fill="#CD0B2A"/>
<path d="M9.11943 11.9664C9.65949 6.82802 12.4987 4.52887 17.6371 5.06894L56.1748 9.11941C61.3132 9.65948 63.6123 12.4987 63.0722 17.6371L59.0218 56.1748C58.4817 61.3131 55.6425 63.6123 50.5041 63.0722L11.9664 59.0218C6.82804 58.4817 4.52889 55.6425 5.06895 50.5041L9.11943 11.9664ZM8.92272 50.9092C8.65269 53.4783 9.80227 54.8979 12.3714 55.168L50.9092 59.2185C53.4784 59.4885 54.898 58.3389 55.168 55.7697L59.2185 17.232C59.4885 14.6628 58.3389 13.2432 55.7697 12.9732L17.232 8.92271C14.6628 8.65268 13.2432 9.80225 12.9732 12.3714L8.92272 50.9092Z" fill="#FF627B"/>
<path d="M8.92272 50.9092L12.9732 12.3715C13.2432 9.80228 14.6628 8.65271 17.232 8.92274L55.7697 12.9732C58.3389 13.2433 59.4885 14.6629 59.2185 17.232L55.168 55.7698C54.898 58.3389 53.4783 59.4885 50.9092 59.2185L12.3714 55.168C9.80226 54.898 8.65269 53.4784 8.92272 50.9092Z" fill="#EE2747"/>
<path d="M36.6236 49.6321L32.9162 45.0539L28.338 48.7613L28.2416 48.7512C26.6091 50.0732 24.733 50.6228 22.6135 50.4L22.5171 50.3899C20.4618 50.1739 18.741 49.2462 17.3547 47.6069L17.3649 47.5106C16.0429 45.878 15.4932 44.002 15.716 41.8824L15.7261 41.786C15.9422 39.7307 16.8698 38.0099 18.5091 36.6237L23.0874 32.9163L19.38 28.338L19.3901 28.2417C18.0681 26.6091 17.5185 24.7331 17.7413 22.6135L17.7514 22.5172C17.9674 20.4618 18.8951 18.741 20.5344 17.3548C22.2311 16.0395 24.1072 15.4899 26.1626 15.7059L26.2589 15.7161C28.3785 15.9388 30.0993 16.8665 31.4213 18.4991L31.5176 18.5092L35.225 23.0874L39.8032 19.38C41.5 18.0648 43.3761 17.5152 45.4314 17.7312L45.5278 17.7413C47.6473 17.9641 49.3681 18.8917 50.6901 20.5243L50.7865 20.5344C52.1017 22.2312 52.6514 24.1073 52.4353 26.1626L52.4252 26.2589C52.2024 28.3785 51.2748 30.0993 49.6422 31.4213L49.6321 31.5177L45.0539 35.225L48.7612 39.8033C50.0765 41.5001 50.6261 43.3761 50.4101 45.4315L50.4 45.5278C50.1772 47.6474 49.2495 49.3682 47.617 50.6902L47.5105 50.7764C45.878 52.0984 44.0019 52.648 41.8823 52.4253L41.786 52.4151C39.7306 52.1991 38.0098 51.2714 36.6236 49.6321ZM42.2173 22.3612L34.6478 28.579L28.4401 20.9132C27.8078 20.1324 26.9458 19.6846 25.8538 19.5698C24.7619 19.4551 23.7935 19.7104 22.9485 20.336C22.1609 21.0325 21.7098 21.9267 21.595 23.0186C21.4803 24.1105 21.739 25.0468 22.3713 25.8276L28.579 33.4935L20.9232 39.6048C20.1357 40.3013 19.6846 41.1955 19.5698 42.2874C19.455 43.3793 19.7138 44.3157 20.346 45.0965C21.0358 45.9482 21.9266 46.4315 23.0185 46.5462C24.1104 46.661 25.0501 46.3701 25.8377 45.6736L33.4934 39.5623L39.6149 47.1217C40.3047 47.9735 41.1955 48.4567 42.2874 48.5715C43.3793 48.6862 44.319 48.3954 45.1065 47.6989C45.9515 47.0734 46.4314 46.2147 46.5462 45.1228C46.661 44.0309 46.3735 43.059 45.6837 42.2073L39.5622 34.6479L47.1318 28.43C47.9768 27.8045 48.4567 26.9458 48.5714 25.8539C48.6862 24.762 48.3987 23.7902 47.709 22.9384C47.0767 22.1576 46.2146 21.7098 45.1227 21.5951C44.0308 21.4803 43.0624 21.7357 42.2173 22.3612Z" fill="white"/>
<path d="M42.2173 22.361C43.0623 21.7355 44.0308 21.4801 45.1227 21.5949C46.2146 21.7096 47.0767 22.1574 47.709 22.9382C48.3987 23.7899 48.6862 24.7618 48.5714 25.8537C48.4567 26.9456 47.9768 27.8043 47.1318 28.4298L39.5622 34.6476L45.6837 42.207C46.3735 43.0588 46.661 44.0306 46.5462 45.1225C46.4314 46.2144 45.9515 47.0732 45.1065 47.6987C44.319 48.3952 43.3793 48.686 42.2874 48.5713C41.1955 48.4565 40.3046 47.9732 39.6149 47.1215L33.4934 39.5621L25.8377 45.6734C25.0501 46.3699 24.1104 46.6608 23.0185 46.546C21.9266 46.4313 21.0358 45.948 20.346 45.0962C19.7138 44.3155 19.455 43.3791 19.5698 42.2872C19.6845 41.1953 20.1357 40.3011 20.9232 39.6046L28.579 33.4933L22.3713 25.8274C21.739 25.0466 21.4803 24.1103 21.595 23.0183C21.7098 21.9264 22.1609 21.0322 22.9485 20.3358C23.7935 19.7102 24.7619 19.4549 25.8538 19.5696C26.9457 19.6844 27.8078 20.1322 28.4401 20.9129L34.6478 28.5788L42.2173 22.361Z" fill="#FF627B"/>
</g>
<defs>
<clipPath id="clip0_126_18">
<rect width="62" height="62" fill="white" transform="translate(61.6604 68.1411) rotate(-174)"/>
</clipPath>
</defs>
</svg>
