<svg width="290" height="97" viewBox="0 0 290 97" fill="none" xmlns="http://www.w3.org/2000/svg">
<path d="M9.06254 6.0625C7.40108 6.0625 6.44449 6.71927 6.19275 8.03281L6.11723 8.33593L6.04171 9.09375V36.375L6.11723 37.2086V37.5875V38.1937V38.5726L6.04171 39.4062V81.8437C6.04171 83.8645 7.04865 84.875 9.06254 84.875H280.938C282.951 84.875 283.958 83.8645 283.958 81.8437V39.4062V38.5726L283.883 38.1937V37.5875L283.958 37.2086V36.375V9.09375L283.883 8.03281L283.958 8.10859C283.606 6.74453 282.599 6.0625 280.938 6.0625H9.06254ZM286.904 38.1937L286.979 39.4062V81.8437C286.979 85.8854 284.965 87.9062 280.938 87.9062H9.06254C5.03476 87.9062 3.02087 85.8854 3.02087 81.8437V39.4062L3.09639 38.1937V37.5875L3.02087 36.375V9.09375L3.17192 7.6539C3.57469 4.57214 5.53824 3.03125 9.06254 3.03125H280.938C284.462 3.03125 286.451 4.57214 286.904 7.6539L286.979 9.09375V36.375L286.904 37.5875V38.1937Z" fill="white"/>
<path d="M9.06258 6.0625H280.938C282.599 6.0625 283.606 6.74453 283.958 8.10859L283.883 8.03281L283.958 9.09375V36.375V37.2086L283.883 37.5875V38.1937L283.958 38.5726V39.4062V81.8437C283.958 83.8645 282.951 84.875 280.938 84.875H9.06258C7.04869 84.875 6.04175 83.8645 6.04175 81.8437V39.4062L6.11727 38.5726V38.1937V37.5875V37.2086L6.04175 36.375V9.09375L6.11727 8.33594L6.19279 8.03281C6.44453 6.71927 7.40112 6.0625 9.06258 6.0625ZM127.932 9.09375H123.552H9.06258V36.375V36.6023L9.1381 37.2086V37.5875V38.1937V38.5726V39.1031L9.06258 39.4062V81.8437H123.552H132.237H280.938V39.4062V39.0273L280.862 38.1937V37.5875L280.938 36.8297V36.375V9.09375H127.932ZM277.841 37.9664L277.917 39.2547V39.4062V78.8125H12.0834V39.5578L12.1589 38.5726V38.1937V37.5875V37.2086V37.1328L12.0834 36.375V12.125H277.917V36.375V36.5265C277.816 36.9812 277.791 37.4107 277.841 37.8148V37.9664Z" fill="#DADCE7"/>
<path d="M286.904 38.1937V37.5875L286.979 36.375V9.09375L286.904 7.6539C286.451 4.57213 284.462 3.03125 280.937 3.03125H9.0625C5.53819 3.03125 3.57465 4.57213 3.17187 7.6539L3.02083 9.09375V36.375L3.09635 37.5875V38.1937L3.02083 39.4062V81.8437C3.02083 85.8854 5.03472 87.9062 9.0625 87.9062H280.937C284.965 87.9062 286.979 85.8854 286.979 81.8437V39.4062L286.904 38.1937ZM0 37.5117V9.09375C0 3.03125 3.02083 0 9.0625 0H280.937C286.979 0 290 3.03125 290 9.09375V37.5117L289.924 37.8906L290 38.4969V82.2226C289.849 88.0325 286.828 90.9375 280.937 90.9375H9.0625C3.17187 90.9375 0.151042 88.0325 0 82.2226V38.4969L0.0755208 37.8906L0 37.5117Z" fill="#9696A3"/>
<path d="M127.932 9.09375H280.937V36.375V36.8297L280.862 37.5875V38.1937L280.937 39.0273V39.4062V81.8437H132.237H123.552H9.0625V39.4062L9.13802 39.1031V38.5726V38.1937V37.5875V37.2086L9.0625 36.6023V36.375V9.09375H123.552H127.932ZM277.841 37.9664V37.8148C277.791 37.4107 277.816 36.9812 277.917 36.5266V36.375V12.125H12.0833V36.375L12.1589 37.1328V37.2086V37.5875V38.1937V38.5726L12.0833 39.5578V78.8125H277.917V39.4062V39.2547L277.841 37.9664Z" fill="#5FC5F3"/>
<path d="M290 37.5117V38.4969L289.924 37.8906L290 37.5117ZM0 38.4969V37.5117L0.0755208 37.8906L0 38.4969Z" fill="#FF0000"/>
<path d="M290 82.2227V87.9062C290 93.9687 286.979 97 280.937 97H9.0625C3.02083 97 0 93.9687 0 87.9062V82.2227C0.151042 88.0325 3.17187 90.9375 9.0625 90.9375H280.937C286.828 90.9375 289.849 88.0325 290 82.2227Z" fill="#747487"/>
</svg>
