<svg width="551" height="707" viewBox="0 0 551 707" fill="none" xmlns="http://www.w3.org/2000/svg">
<path d="M0 16C0 7.16343 7.16344 0 16 0H535C543.837 0 551 7.16344 551 16V691C551 699.837 543.837 707 535 707H16C7.16345 707 0 699.837 0 691V16Z" fill="#029357"/>
<path d="M3 17C3 9.26803 9.26801 3 17 3H534C541.732 3 548 9.26801 548 17V690C548 697.732 541.732 704 534 704H17C9.268 704 3 697.732 3 690V17Z" fill="#2FD792"/>
<path d="M7 17C7 11.4772 11.4772 7 17 7H534C539.523 7 544 11.4772 544 17V691C544 696.523 539.523 701 534 701H17C11.4772 701 7 696.523 7 691V17Z" fill="#16BB77"/>
<path d="M11 109C11 104.582 14.5817 101 19 101H531C535.418 101 539 104.582 539 109V689C539 693.418 535.418 697 531 697H19C14.5817 697 11 693.418 11 689V109Z" fill="white"/>
<path d="M14 110.396C14 107.082 16.6863 104.396 20 104.396H530C533.314 104.396 536 107.082 536 110.396V688C536 691.314 533.314 694 530 694H20C16.6863 694 14 691.314 14 688V110.396Z" fill="#DADCE7"/>
</svg>
