<svg width="69" height="69" viewBox="0 0 69 69" fill="none" xmlns="http://www.w3.org/2000/svg">
<g clip-path="url(#clip0_8_2441)">
<path d="M9.11944 11.9664L5.06896 50.5041C4.52889 55.6425 6.82804 58.4817 11.9664 59.0217L50.5041 63.0722C55.6425 63.6123 58.4817 61.3131 59.0218 56.1748L63.0722 17.637C63.6123 12.4987 61.3132 9.65946 56.1748 9.1194L17.6371 5.06892C12.4987 4.52886 9.6595 6.82801 9.11944 11.9664ZM50.0991 66.926L11.5614 62.8755C3.85381 62.0654 0.405089 57.8066 1.21519 50.099L5.26566 11.5613C6.07576 3.85378 10.3346 0.405053 18.0421 1.21515L56.5798 5.26563C64.2874 6.07572 67.7361 10.3345 66.926 18.0421L62.8755 56.5798C62.0654 64.2874 57.8066 67.7361 50.0991 66.926Z" fill="#CD0B2A"/>
<path d="M9.11943 11.9664C9.65949 6.82801 12.4987 4.52886 17.6371 5.06892L56.1748 9.1194C61.3132 9.65946 63.6123 12.4987 63.0722 17.637L59.0218 56.1748C58.4817 61.3131 55.6425 63.6123 50.5041 63.0722L11.9664 59.0217C6.82804 58.4817 4.52889 55.6425 5.06895 50.5041L9.11943 11.9664ZM8.92272 50.9091C8.65269 53.4783 9.80227 54.8979 12.3714 55.168L50.9092 59.2184C53.4784 59.4885 54.898 58.3389 55.168 55.7697L59.2185 17.232C59.4885 14.6628 58.3389 13.2432 55.7697 12.9732L17.232 8.92269C14.6628 8.65266 13.2432 9.80224 12.9732 12.3714L8.92272 50.9091Z" fill="#FF627B"/>
<path d="M8.92272 50.9091L12.9732 12.3714C13.2432 9.80224 14.6628 8.65266 17.232 8.92269L55.7697 12.9732C58.3389 13.2432 59.4885 14.6628 59.2185 17.232L55.168 55.7697C54.898 58.3389 53.4783 59.4885 50.9092 59.2184L12.3714 55.168C9.80226 54.8979 8.65269 53.4783 8.92272 50.9091Z" fill="#EE2747"/>
<path d="M36.6236 49.6321L32.9162 45.0538L28.338 48.7612L28.2416 48.7511C26.6091 50.0731 24.733 50.6227 22.6134 50.3999L22.5171 50.3898C20.4617 50.1738 18.741 49.2461 17.3547 47.6068L17.3648 47.5105C16.0428 45.8779 15.4932 44.0019 15.716 41.8823L15.7261 41.7859C15.9421 39.7306 16.8698 38.0098 18.5091 36.6236L23.0873 32.9162L19.38 28.3379L19.3901 28.2416C18.0681 26.6091 17.5185 24.733 17.7412 22.6134L17.7514 22.5171C17.9674 20.4617 18.895 18.7409 20.5343 17.3547C22.2311 16.0394 24.1072 15.4898 26.1625 15.7058L26.2589 15.716C28.3784 15.9387 30.0992 16.8664 31.4212 18.499L31.5176 18.5091L35.225 23.0873L39.8032 19.3799C41.5 18.0647 43.376 17.5151 45.4314 17.7311L45.5277 17.7412C47.6473 17.964 49.3681 18.8916 50.6901 20.5242L50.7865 20.5343C52.1017 22.2311 52.6513 24.1072 52.4353 26.1625L52.4252 26.2589C52.2024 28.3784 51.2747 30.0992 49.6422 31.4212L49.6321 31.5176L45.0538 35.225L48.7612 39.8032C50.0765 41.5 50.6261 43.376 50.4101 45.4314L50.3999 45.5277C50.1772 47.6473 49.2495 49.3681 47.617 50.6901L47.5105 50.7763C45.8779 52.0983 44.0019 52.6479 41.8823 52.4252L41.786 52.415C39.7306 52.199 38.0098 51.2713 36.6236 49.6321ZM42.2173 22.3611L34.6478 28.5789L28.4401 20.9131C27.8078 20.1323 26.9457 19.6845 25.8538 19.5697C24.7619 19.455 23.7935 19.7104 22.9484 20.3359C22.1609 21.0324 21.7098 21.9266 21.595 23.0185C21.4802 24.1104 21.739 25.0467 22.3713 25.8275L28.579 33.4934L20.9232 39.6047C20.1357 40.3012 19.6845 41.1954 19.5698 42.2873C19.455 43.3792 19.7137 44.3156 20.346 45.0964C21.0358 45.9481 21.9266 46.4314 23.0185 46.5462C24.1104 46.6609 25.0501 46.37 25.8376 45.6736L33.4934 39.5622L39.6149 47.1216C40.3046 47.9734 41.1954 48.4566 42.2873 48.5714C43.3792 48.6862 44.319 48.3953 45.1065 47.6988C45.9515 47.0733 46.4314 46.2146 46.5462 45.1227C46.6609 44.0308 46.3734 43.0589 45.6837 42.2072L39.5622 34.6478L47.1317 28.4299C47.9768 27.8044 48.4566 26.9457 48.5714 25.8538C48.6862 24.7619 48.3987 23.7901 47.7089 22.9383C47.0767 22.1575 46.2146 21.7097 45.1227 21.595C44.0308 21.4802 43.0623 21.7356 42.2173 22.3611Z" fill="white"/>
<path d="M42.2173 22.3611C43.0623 21.7356 44.0308 21.4802 45.1227 21.595C46.2146 21.7097 47.0767 22.1575 47.7089 22.9383C48.3987 23.7901 48.6862 24.7619 48.5714 25.8538C48.4566 26.9457 47.9767 27.8044 47.1317 28.4299L39.5622 34.6478L45.6837 42.2072C46.3734 43.0589 46.6609 44.0308 46.5462 45.1227C46.4314 46.2146 45.9515 47.0733 45.1065 47.6988C44.319 48.3953 43.3792 48.6862 42.2873 48.5714C41.1954 48.4566 40.3046 47.9734 39.6149 47.1216L33.4934 39.5622L25.8376 45.6736C25.0501 46.37 24.1104 46.6609 23.0185 46.5462C21.9266 46.4314 21.0358 45.9481 20.346 45.0964C19.7137 44.3156 19.455 43.3792 19.5698 42.2873C19.6845 41.1954 20.1357 40.3012 20.9232 39.6047L28.579 33.4934L22.3712 25.8275C21.739 25.0467 21.4802 24.1104 21.595 23.0185C21.7098 21.9266 22.1609 21.0324 22.9484 20.3359C23.7935 19.7104 24.7619 19.455 25.8538 19.5697C26.9457 19.6845 27.8078 20.1323 28.4401 20.9131L34.6478 28.5789L42.2173 22.3611Z" fill="#FF627B"/>
</g>
<defs>
<clipPath id="clip0_8_2441">
<rect width="62" height="62" fill="white" transform="translate(61.6604 68.1411) rotate(-174)"/>
</clipPath>
</defs>
</svg>
