<svg width="445" height="149" viewBox="0 0 445 149" fill="none" xmlns="http://www.w3.org/2000/svg">
<path d="M13.9062 9.3125C11.3567 9.3125 9.88885 10.3214 9.50256 12.3391L9.38668 12.8047L9.27079 13.9688V55.875L9.38668 57.1555V57.7375V58.6688V59.2508L9.27079 60.5312V125.719C9.27079 128.823 10.8159 130.375 13.9062 130.375H431.094C434.184 130.375 435.729 128.823 435.729 125.719V60.5312V59.2508L435.613 58.6688V57.7375L435.729 57.1555V55.875V13.9688L435.613 12.3391L435.729 12.4555C435.188 10.3602 433.643 9.3125 431.094 9.3125H13.9062ZM440.249 58.6688L440.365 60.5312V125.719C440.365 131.927 437.274 135.031 431.094 135.031H13.9062C7.72565 135.031 4.63538 131.927 4.63538 125.719V60.5312L4.75126 58.6688V57.7375L4.63538 55.875V13.9688L4.86715 11.757C5.4852 7.02318 8.49822 4.65625 13.9062 4.65625H431.094C436.502 4.65625 439.553 7.02318 440.249 11.757L440.365 13.9688V55.875L440.249 57.7375V58.6688Z" fill="white"/>
<path d="M13.9063 9.3125H431.094C433.643 9.3125 435.188 10.3602 435.729 12.4555L435.613 12.3391L435.729 13.9688V55.875V57.1555L435.613 57.7375V58.6688L435.729 59.2508V60.5312V125.719C435.729 128.823 434.184 130.375 431.094 130.375H13.9063C10.816 130.375 9.27087 128.823 9.27087 125.719V60.5312L9.38676 59.2508V58.6688V57.7375V57.1555L9.27087 55.875V13.9688L9.38676 12.8047L9.50264 12.3391C9.88893 10.3214 11.3568 9.3125 13.9063 9.3125ZM196.31 13.9688H189.589H13.9063V55.875V56.2242L14.0222 57.1555V57.7375V58.6688V59.2508V60.0656L13.9063 60.5312V125.719H189.589H202.915H431.094V60.5312V59.9492L430.978 58.6688V57.7375L431.094 56.5734V55.875V13.9688H196.31ZM426.342 58.3195L426.458 60.2984V60.5312V121.062H18.5417V60.7641L18.6576 59.2508V58.6688V57.7375V57.1555V57.0391L18.5417 55.875V18.625H426.458V55.875V56.1078C426.304 56.8063 426.265 57.4659 426.342 58.0867V58.3195Z" fill="#DADCE7"/>
<path d="M440.249 58.6688V57.7375L440.365 55.875V13.9688L440.249 11.757C439.553 7.02318 436.502 4.65625 431.094 4.65625H13.9062C8.49826 4.65625 5.48524 7.02318 4.86719 11.757L4.63542 13.9688V55.875L4.7513 57.7375V58.6688L4.63542 60.5312V125.719C4.63542 131.927 7.72569 135.031 13.9062 135.031H431.094C437.274 135.031 440.365 131.927 440.365 125.719V60.5312L440.249 58.6688ZM0 57.6211V13.9688C0 4.65625 4.63542 0 13.9062 0H431.094C440.365 0 445 4.65625 445 13.9688V57.6211L444.884 58.2031L445 59.1344V126.301C444.768 135.225 440.133 139.688 431.094 139.688H13.9062C4.86719 139.688 0.231771 135.225 0 126.301V59.1344L0.115885 58.2031L0 57.6211Z" fill="#9696A3"/>
<path d="M196.31 13.9688H431.094V55.875V56.5734L430.978 57.7375V58.6688L431.094 59.9492V60.5312V125.719H202.915H189.589H13.9062V60.5312L14.0221 60.0656V59.2508V58.6688V57.7375V57.1555L13.9062 56.2242V55.875V13.9688H189.589H196.31ZM426.342 58.3195V58.0867C426.265 57.4659 426.304 56.8063 426.458 56.1078V55.875V18.625H18.5417V55.875L18.6576 57.0391V57.1555V57.7375V58.6688V59.2508L18.5417 60.7641V121.062H426.458V60.5312V60.2984L426.342 58.3195Z" fill="#FFCC00"/>
<path d="M445 57.6211V59.1344L444.884 58.2031L445 57.6211ZM0 59.1344V57.6211L0.115885 58.2031L0 59.1344Z" fill="#FF0000"/>
<path d="M445 126.301V135.031C445 144.344 440.365 149 431.094 149H13.9062C4.63542 149 0 144.344 0 135.031V126.301C0.231771 135.225 4.86719 139.688 13.9062 139.688H431.094C440.133 139.688 444.768 135.225 445 126.301Z" fill="#747487"/>
</svg>
