<svg width="360" height="120" viewBox="0 0 360 120" fill="none" xmlns="http://www.w3.org/2000/svg">
<path d="M11.25 7.5C9.1875 7.5 8 8.3125 7.6875 9.9375L7.59375 10.3125L7.5 11.25V45L7.59375 46.0312V46.5V47.25V47.7188L7.5 48.75V101.25C7.5 103.75 8.75 105 11.25 105H348.75C351.25 105 352.5 103.75 352.5 101.25V48.75V47.7188L352.406 47.25V46.5L352.5 46.0312V45V11.25L352.406 9.9375L352.5 10.0312C352.062 8.34375 350.812 7.5 348.75 7.5H11.25ZM356.156 47.25L356.25 48.75V101.25C356.25 106.25 353.75 108.75 348.75 108.75H11.25C6.25 108.75 3.75 106.25 3.75 101.25V48.75L3.84375 47.25V46.5L3.75 45V11.25L3.9375 9.46875C4.4375 5.65625 6.875 3.75 11.25 3.75H348.75C353.125 3.75 355.594 5.65625 356.156 9.46875L356.25 11.25V45L356.156 46.5V47.25Z" fill="white"/>
<path d="M11.25 7.5H348.75C350.812 7.5 352.062 8.34375 352.5 10.0312L352.406 9.9375L352.5 11.25V45V46.0312L352.406 46.5V47.25L352.5 47.7188V48.75V101.25C352.5 103.75 351.25 105 348.75 105H11.25C8.75 105 7.5 103.75 7.5 101.25V48.75L7.59375 47.7188V47.25V46.5V46.0312L7.5 45V11.25L7.59375 10.3125L7.6875 9.9375C8 8.3125 9.1875 7.5 11.25 7.5ZM158.812 11.25H153.375H11.25V45V45.2812L11.3438 46.0312V46.5V47.25V47.7188V48.375L11.25 48.75V101.25H153.375H164.156H348.75V48.75V48.2812L348.656 47.25V46.5L348.75 45.5625V45V11.25H158.812ZM344.906 46.9688L345 48.5625V48.75V97.5H15V48.9375L15.0938 47.7188V47.25V46.5V46.0312V45.9375L15 45V15H345V45V45.1875C344.875 45.75 344.844 46.2812 344.906 46.7812V46.9688Z" fill="#DADCE7"/>
<path d="M344.906 46.9688V46.7812C344.844 46.2812 344.875 45.75 345 45.1875V45V15H15V45L15.0938 45.9375V46.0312V46.5V47.25V47.7188L15 48.9375V97.5H345V48.75V48.5625L344.906 46.9688ZM0 46.4062V11.25C0 3.75 3.75 0 11.25 0H348.75C356.25 0 360 3.75 360 11.25V46.4062L359.906 46.875L360 47.625V101.719C359.812 108.906 356.062 112.5 348.75 112.5H11.25C3.9375 112.5 0.1875 108.906 0 101.719V47.625L0.09375 46.875L0 46.4062ZM356.156 47.25V46.5L356.25 45V11.25L356.156 9.46875C355.594 5.65625 353.125 3.75 348.75 3.75H11.25C6.875 3.75 4.4375 5.65625 3.9375 9.46875L3.75 11.25V45L3.84375 46.5V47.25L3.75 48.75V101.25C3.75 106.25 6.25 108.75 11.25 108.75H348.75C353.75 108.75 356.25 106.25 356.25 101.25V48.75L356.156 47.25ZM158.812 11.25H348.75V45V45.5625L348.656 46.5V47.25L348.75 48.2812V48.75V101.25H164.156H153.375H11.25V48.75L11.3438 48.375V47.7188V47.25V46.5V46.0312L11.25 45.2812V45V11.25H153.375H158.812Z" fill="#9696A3"/>
<path d="M360 46.4062V47.625L359.906 46.875L360 46.4062ZM0 47.625V46.4062L0.09375 46.875L0 47.625Z" fill="#FF0000"/>
<path d="M360 101.719V108.75C360 116.25 356.25 120 348.75 120H11.25C3.75 120 0 116.25 0 108.75V101.719C0.1875 108.906 3.9375 112.5 11.25 112.5H348.75C356.062 112.5 359.812 108.906 360 101.719Z" fill="#747487"/>
</svg>
